<svg width="1000" height="260" viewBox="0 0 1000 260" fill="none" xmlns="http://www.w3.org/2000/svg">
  <rect width="1000" height="260" fill="#EAF6FF"/>

  <circle cx="130" cy="70" r="36" fill="#FFFFFF" opacity="0.65"/>
  <circle cx="175" cy="58" r="48" fill="#FFFFFF" opacity="0.65"/>
  <circle cx="225" cy="75" r="38" fill="#FFFFFF" opacity="0.65"/>
  <rect x="115" y="70" width="170" height="42" rx="21" fill="#FFFFFF" opacity="0.65"/>

  <circle cx="750" cy="78" r="50" fill="#FFFFFF" opacity="0.78"/>
  <circle cx="815" cy="62" r="70" fill="#FFFFFF" opacity="0.78"/>
  <circle cx="885" cy="82" r="52" fill="#FFFFFF" opacity="0.78"/>
  <rect x="730" y="78" width="230" height="58" rx="29" fill="#FFFFFF" opacity="0.78"/>

  <circle cx="165" cy="205" r="62" fill="#FFFFFF" opacity="0.92"/>
  <circle cx="235" cy="185" r="88" fill="#FFFFFF" opacity="0.92"/>
  <circle cx="325" cy="205" r="68" fill="#FFFFFF" opacity="0.92"/>
  <rect x="140" y="198" width="260" height="62" rx="31" fill="#FFFFFF" opacity="0.92"/>

  <circle cx="625" cy="218" r="42" fill="#FFFFFF" opacity="0.7"/>
  <circle cx="675" cy="205" r="58" fill="#FFFFFF" opacity="0.7"/>
  <circle cx="735" cy="220" r="45" fill="#FFFFFF" opacity="0.7"/>
  <rect x="610" y="218" width="170" height="42" rx="21" fill="#FFFFFF" opacity="0.7"/>

  <text x="500" y="116" text-anchor="middle"
        font-family="Apple SD Gothic Neo, Pretendard, Arial, sans-serif"
        font-size="40" font-weight="700" fill="#334155">
    안녕하세요, 노수한입니다
  </text>

  <text x="500" y="158" text-anchor="middle"
        font-family="Apple SD Gothic Neo, Pretendard, Arial, sans-serif"
        font-size="18" font-weight="500" fill="#64748B">
    Java / Spring Boot Backend Developer
  </text>
</svg>
